<svg version="1.2" xmlns="http://www.w3.org/2000/svg" viewBox="0 0 592 416" width="592" height="416">
	<style>
		.s0 { opacity: 1;fill: #ffffff } 
	</style>
	<path id="Path 0" fill-rule="evenodd" class="s0" d="m366 18.63c3.58 0.62 9.88 2.66 14 4.53 4.4 2 9.72 5.46 12.87 8.37 2.95 2.73 9.55 9.92 14.66 15.97 6.68 7.91 10.94 11.97 15.13 14.46 4.55 2.69 7.39 3.6 12.84 4.11 3.85 0.36 8.8 0.37 15-0.61l0.08-5.48c0.05-3.01 0.46-6.83 0.92-8.48 0.45-1.65 0.75-3.34 0.66-3.75-0.09-0.41 0.29-0.52 0.84-0.25 0.55 0.27 1.56-0.2 2.25-1.04 1.03-1.28 3.97-1.54 32.75-1.46l3.25 2.92c2.99 2.69 3.29 3.51 4.25 17.91l15.5 0.63c8.52 0.35 17.52 1.09 20 1.63 2.48 0.55 5.19 1.09 6.03 1.21 0.84 0.11 2.64 0.89 4 1.73 1.36 0.84 4.25 2.42 6.44 3.5 2.18 1.08 7.69 5.68 12.25 10.22 4.55 4.54 8.28 8.48 8.28 8.75 0 0.27 1.08 2.64 2.4 5.25 1.31 2.61 3.08 7.23 3.93 10.25 1.32 4.7 1.62 18.28 2.04 93 0.27 48.13 0.5 100.1 0.51 115.5 0 21.71-0.34 29.46-1.53 34.5-0.84 3.58-2.17 7.74-2.94 9.25-0.78 1.51-1.07 2.74-0.66 2.73 0.41-0.01 0.05 0.56-0.81 1.25-0.85 0.7-2.88 3.06-4.5 5.25-1.62 2.19-2.27 3.62-1.44 3.18 0.83-0.45 0.37 0.08-1 1.16-1.38 1.08-3.42 2.8-4.55 3.82-1.12 1.03-1.35 1.41-0.5 0.86 1.39-0.89 1.39-0.81 0.05 0.77-0.83 0.98-1.73 1.55-2 1.28-0.27-0.28-2.3 0.95-4.5 2.72-2.2 1.77-4.11 3.56-4.25 3.97-0.14 0.42-0.7 0.53-1.25 0.26-0.55-0.27-1-0.05-1 0.5 0 0.55-0.56 0.74-1.25 0.43-0.69-0.32-2.04 0.13-3 1-0.96 0.86-1.86 1.38-2 1.15-0.14-0.24-2.95 0.21-6.25 0.99-4.68 1.11-20.17 1.57-70.5 2.09-35.48 0.37-65.63 0.4-67 0.07-1.38-0.33-3.74-1.76-5.25-3.17-1.92-1.79-2.74-3.54-2.73-5.81 0.01-1.79 0.94-4.6 2.07-6.25 1.14-1.65 3.68-4.13 9.26-8l58.58-0.26c32.21-0.15 59.24-0.55 60.07-0.9 0.83-0.34 2.74-0.56 4.25-0.48 1.54 0.08 2.53-0.3 2.25-0.86-0.29-0.57 0.36-0.79 1.5-0.5 1.1 0.27 2 0.05 2-0.5 0-0.55 0.45-0.77 1-0.5 0.55 0.27 2.46-0.24 4.25-1.15 1.79-0.9 5.62-3.94 8.52-6.75 2.9-2.8 5.26-5.66 5.25-6.35-0.01-0.69 0.32-1.24 0.73-1.22 0.41 0.02 1.88-2.57 5.75-11.53l0.08-83.5c0.04-45.93-0.18-95.43-0.5-110-0.58-26.37-0.59-26.53-3.38-32.5-1.54-3.3-4.91-8.12-7.5-10.71-2.58-2.59-5.04-4.5-5.45-4.25-0.41 0.25-0.75 0.01-0.75-0.54 0-0.55-2.36-2.24-10.5-6.5l-48-0.24c-26.4-0.12-49.46-0.35-51.25-0.5-1.79-0.14-3.25-0.6-3.25-1.01 0-0.41-0.9-0.52-2-0.25-1.1 0.27-2 0.05-2-0.5 0-0.55-0.67-0.77-1.5-0.5-0.83 0.27-1.5 0.16-1.5-0.25 0-0.41-2.37-1.97-5.25-3.47-2.89-1.5-7.05-4.25-9.25-6.11-2.2-1.87-4.45-3.46-5-3.53-0.55-0.08-1-0.5-1-0.95 0-0.44-1.24-2.24-2.75-4-1.51-1.75-3.05-2.85-3.41-2.44-0.36 0.41-0.36 0.19 0-0.5 0.38-0.73-0.91-2.81-3.09-4.96-2.06-2.05-3.08-3.3-2.25-2.78 0.83 0.52-0.08-1-2-3.38-1.92-2.38-5.3-5.62-7.5-7.2-2.2-1.58-4.34-2.66-4.75-2.4-0.41 0.26-0.75 0.02-0.75-0.53 0-0.55-0.45-0.77-1-0.5-0.55 0.27-0.99-0.06-0.97-0.75 0.01-0.69-0.21-0.91-0.5-0.5-0.29 0.41-1.2 0.07-2.03-0.75-0.83-0.82-2.4-1.27-3.5-1-1.1 0.27-2.23 0.05-2.5-0.5-0.33-0.66-21.39-0.82-61.75-0.48-33.69 0.29-62.6 0.79-64.25 1.12-1.65 0.33-4.69 1.45-6.75 2.48-2.06 1.03-5.38 3.34-7.38 5.13-1.99 1.79-6.61 7.25-10.25 12.13-3.64 4.88-7.52 10.14-8.62 11.67-1.1 1.54-4.7 4.84-8 7.34-3.4 2.58-8.93 5.53-12.76 6.83-3.72 1.25-6.57 2.51-6.33 2.78 0.23 0.27-1 0.54-2.74 0.59-1.74 0.05-24.77 0.37-51.17 0.7-46.67 0.58-48.17 0.66-54 2.86-3.3 1.25-8.14 3.97-10.75 6.06-2.61 2.08-6.11 5.93-7.77 8.54-1.66 2.61-3.65 6.77-4.44 9.25-0.97 3.08-1.48 10.2-1.62 22.5-0.1 9.9-0.09 44.1 0.04 76 0.13 31.9 0.53 73.52 1.54 127l3 5.85c1.65 3.21 5.02 7.85 7.5 10.3 2.48 2.45 6.75 5.56 9.5 6.91 2.75 1.35 7.7 2.89 11 3.44 3.81 0.63 27.94 0.76 66 0.37 58.57-0.61 60.1-0.58 64 1.37 2.2 1.09 5.24 3.4 6.75 5.12 1.88 2.15 2.75 4.25 2.75 6.64 0 1.92-0.45 4.4-1 5.5-0.61 1.22-1.49 1.71-2.25 1.26q-1.24-0.73-0.5 0.5c0.46 0.76-0.02 1.63-1.25 2.24-1.28 0.64-27.91 1-73.75 1-71.21-0.01-71.8-0.03-78.25-2.2-3.57-1.21-9.2-4.04-12.5-6.29-3.3-2.25-5.89-4.64-5.75-5.3 0.14-0.67-0.2-0.98-0.75-0.71-0.55 0.27-2.6-1.19-4.56-3.25-1.95-2.06-5.1-6.34-7-9.5-1.89-3.16-4.13-7.89-4.98-10.5-0.85-2.61-1.72-5.65-1.93-6.75-0.21-1.1-0.46-5.83-0.57-10.5-0.14-6.16-0.41-7.67-0.96-5.5-0.66 2.58-0.77 2.3-0.81-2-0.04-3.64 0.18-4.46 0.81-3 0.51 1.18 0.8-8.09 0.57-47l-1.14 38-0.2-20.5c-0.13-13.92 0.12-20.02 0.8-19 0.69 1.03 0.76 0.1 0.23-3-0.42-2.48-0.72-10.58-0.67-18 0.04-7.42 0.49-18.56 1-24.76 0.6-7.44 0.57-11.25-0.09-11.24-0.66 0-0.83-19.08-0.5-56.25 0.49-55.12 0.54-56.36 2.71-61.75 1.22-3.02 4.14-8.4 6.5-11.94 2.36-3.54 4.97-7.54 5.79-8.88 0.82-1.34 1.95-2.43 2.5-2.43 0.55 0.01 2.46-1.28 4.25-2.87 1.79-1.58 3.7-2.88 4.25-2.88 0.55 0 0.7-0.56 0.34-1.25-0.36-0.69-0.36-0.91 0-0.5 0.36 0.41 3.92-0.82 7.91-2.74 4.55-2.2 10.22-3.96 15.25-4.74 5.45-0.85 21.86-1.26 51.5-1.28 23.92-0.02 45.08-0.42 47-0.89 1.92-0.46 5.08-1.67 7-2.68 1.92-1.01 5.76-4.22 8.53-7.13 2.76-2.91 7.03-7.99 9.49-11.29 2.46-3.3 7.51-9.04 11.23-12.75 3.71-3.71 6.98-6.75 7.25-6.75 0.27 0 3.09-1.2 6.25-2.67 3.16-1.47 7.33-3.14 9.25-3.7 2.15-0.63 29.17-1.24 70-1.58 47.23-0.39 68.38-0.22 73 0.58zm-70.18 68.85c15.22 0.15 28.81 0.52 30.18 0.81 1.38 0.29 3.63 0.77 5 1.07 1.38 0.29 3.63 0.81 5 1.14 1.38 0.33 3.4 0.78 4.5 1.01 1.1 0.22 3.35 1.09 5 1.94 1.65 0.84 3.79 1.54 4.75 1.54 0.96 0.01 7.04 2.68 13.5 5.95 6.46 3.27 15.35 8.31 19.75 11.21 4.4 2.9 9.8 6.84 12 8.77 2.2 1.92 7.29 6.89 11.31 11.04 4.02 4.15 9.38 10.47 11.9 14.04 2.53 3.57 6.47 9.65 8.77 13.5 2.29 3.85 6.07 11.73 8.38 17.5 2.31 5.77 4.84 13.65 5.62 17.5 0.77 3.85 1.94 11.05 2.6 16 0.74 5.6 0.95 13.91 0.56 22-0.34 7.15-1.34 17.05-2.21 22-0.88 4.95-2.91 13.05-4.52 18-1.62 4.95-4.64 12.38-6.72 16.5-2.08 4.13-4.32 7.39-4.98 7.25-0.67-0.14-0.98 0.2-0.71 0.75 0.27 0.55-1.96 4.71-4.97 9.25-3.01 4.54-8.07 11.01-11.25 14.37-3.18 3.37-9.15 8.95-13.28 12.4-4.12 3.45-9.88 7.89-12.79 9.88-2.91 1.98-5.27 3.94-5.25 4.35 0.02 0.41-0.53 0.64-1.22 0.5-0.7-0.14-4.52 1.44-8.5 3.5-4.16 2.15-7.77 3.43-8.48 3-0.74-0.45-0.96-0.34-0.55 0.25 0.39 0.56-1.05 1.66-3.29 2.5-2.18 0.83-3.96 1.84-3.94 2.25 0.01 0.41-0.43 0.52-0.98 0.25-0.55-0.27-1.23-0.05-1.5 0.5-0.31 0.63-1.07 0.54-2.04-0.25-1.24-1-1.54-1-1.5 0 0.02 0.69-1.54 1.48-3.46 1.75-1.92 0.27-3.5 0.95-3.5 1.5 0 0.55-0.45 0.77-1 0.5-0.55-0.27-2.69 0.04-4.75 0.69-2.06 0.66-4.76 1.11-6 1-1.24-0.1-2.25 0.15-2.25 0.56 0 0.41-1.8 0.64-4 0.5-2.2-0.14-4 0.09-4 0.5 0 0.41-8.66 0.83-19.25 0.93-11.99 0.11-22.27-0.32-27.25-1.13-4.4-0.72-11.83-2.33-16.5-3.58-4.67-1.24-12.33-3.82-17-5.73-4.67-1.91-12.77-5.78-18-8.6-5.23-2.82-12.65-7.56-16.5-10.54-3.85-2.98-7.23-5.68-7.5-6.01-0.27-0.32-3.09-2.95-6.25-5.84-3.16-2.89-5.8-5.59-5.85-6-0.06-0.41-1.86-2.66-4-5-2.15-2.34-5.69-7.06-7.88-10.5-2.19-3.44-3.66-6.7-3.26-7.25 0.4-0.55 0.28-0.68-0.27-0.29-0.57 0.41-2.79-2.99-5.24-8-2.33-4.79-4.24-9.27-4.25-9.96 0-0.69-0.45-1.25-1-1.25-0.55 0-0.77-0.45-0.5-1 0.27-0.55-0.11-2.46-0.85-4.25-0.75-1.79-1.72-4.15-2.16-5.25-0.44-1.1-0.75-2.23-0.69-2.5 0.07-0.27-0.34-2.08-0.9-4-0.56-1.92-1.15-4.4-1.31-5.5-0.16-1.1-0.61-4.25-1-7-0.39-2.75-0.91-6.35-1.16-8-0.25-1.65-0.44-8.62-0.41-15.5 0.03-6.87 0.73-17 1.57-22.5 0.84-5.5 2.46-12.93 3.61-16.5 1.15-3.57 3.75-10.1 5.78-14.5 2.03-4.4 5.64-11.15 8.01-15 2.37-3.85 7.06-10.64 10.41-15.1 3.36-4.45 9.7-11.37 14.1-15.37 4.4-4 11.6-9.79 16-12.87 4.4-3.09 12.95-8.16 19-11.27 6.05-3.11 15.73-7.1 21.5-8.85 5.77-1.75 11.17-3.43 12-3.73 0.83-0.3 2.81-0.67 4.42-0.82 1.6-0.15 3.09-0.5 3.32-0.78 0.22-0.28 12.85-0.39 28.08-0.23zm-28.32 13.12c-4.95 0.86-11.92 2.48-15.5 3.6-3.58 1.11-9.1 3.21-12.29 4.66-3.18 1.45-5.77 2.98-5.75 3.39 0.02 0.41-0.3 0.54-0.71 0.28-0.41-0.26-5.02 2.04-10.25 5.1-5.23 3.06-12.2 7.71-15.5 10.34-3.3 2.63-9.13 8.1-12.95 12.16-3.83 4.05-9.59 10.97-12.82 15.37-3.22 4.4-7.9 12.27-10.4 17.5-2.5 5.23-4.61 10.51-4.69 11.75-0.08 1.24-0.48 2.25-0.89 2.25-0.41 0-1.05 1.69-1.42 3.75-0.37 2.06-0.76 4.43-0.86 5.25-0.11 0.82-0.45 2.18-0.77 3-0.32 0.82-1.06 3.98-1.65 7-0.58 3.02-1.09 7.3-1.12 9.5-0.03 2.2-0.06 7.6-0.06 12 0 4.4 0.09 9.35 0.2 11 0.11 1.65 0.66 5.48 1.23 8.5 0.56 3.02 1.14 6.17 1.28 7 0.14 0.83 0.53 2.85 0.87 4.5 0.34 1.65 1.78 6.6 3.21 11 1.42 4.4 4.2 11.15 6.17 15 1.96 3.85 5.45 9.92 7.75 13.5 2.3 3.58 4.91 6.84 5.8 7.25 0.89 0.41 1.61 1.31 1.6 2-0.02 0.69 3.7 4.93 8.25 9.42 4.55 4.5 10.52 9.86 13.27 11.92 2.75 2.07 7.02 4.83 9.5 6.15 2.48 1.31 4.73 2.71 5 3.11 0.27 0.4 3.2 2.02 6.5 3.61 3.3 1.59 7.58 3.66 9.5 4.59 1.92 0.94 6.42 2.64 10 3.79 3.58 1.15 11.45 3.08 17.5 4.3 8.89 1.79 14.6 2.22 29.79 2.28 11.47 0.05 19.06-0.31 19.5-0.92 0.39-0.55 1.61-1.09 2.71-1.21 1.1-0.11 3.13-0.46 4.5-0.77 1.38-0.32 4.3-0.82 6.5-1.12 2.2-0.29 4.67-0.8 5.5-1.12 0.83-0.32 2.4-0.75 3.5-0.96 1.1-0.2 4.25-1.22 7-2.24 2.75-1.03 7.48-3 10.5-4.38 3.02-1.37 8.42-4.2 12-6.27 3.58-2.08 9.88-6.35 14-9.51 4.13-3.15 10.24-8.59 13.6-12.08 3.35-3.49 8.24-9.04 10.86-12.34 2.62-3.3 6.46-8.92 8.53-12.5 2.08-3.58 4.78-8.98 6.02-12 1.24-3.02 3.09-7.3 4.11-9.5 1.02-2.2 1.86-5.24 1.87-6.75 0-1.51 0.46-2.98 1.01-3.25 0.55-0.27 1.41-3.31 1.91-6.75 0.5-3.44 0.97-6.93 1.05-7.75 0.08-0.82 0.34-8.48 0.57-17 0.24-8.99-0.05-18.02-0.69-21.5-0.61-3.3-2.21-10.05-3.56-15-1.35-4.95-3.85-11.93-5.54-15.5-1.7-3.57-5.09-9.65-7.53-13.5-2.44-3.85-6.79-9.93-9.66-13.5-2.87-3.57-8.11-9.27-11.63-12.65-3.53-3.38-8.67-7.98-11.42-10.22-2.75-2.24-5.11-3.86-5.25-3.6-0.14 0.26-1.49-0.7-3-2.12-1.51-1.42-7.25-4.82-12.75-7.55-5.5-2.73-10.9-5.13-12-5.34-1.1-0.2-2.11-0.4-2.25-0.44-0.14-0.05-0.59-0.23-1-0.41-0.41-0.19-1.99-0.86-3.5-1.5-1.51-0.65-3.99-1.42-5.5-1.72-1.51-0.31-3.42-0.72-4.25-0.93-0.83-0.2-1.5-0.46-1.5-0.57 0-0.12-1.12-0.33-2.5-0.48-1.37-0.15-3.62-0.56-5-0.93-1.37-0.36-4.08-0.88-6-1.16-1.92-0.27-10.48-0.65-19-0.83-8.52-0.18-17.08-0.15-19 0.07-1.92 0.22-7.55 1.11-12.5 1.98zm239 6.4c2.2 0.02 6.13 1.03 8.74 2.26 3.39 1.6 5.37 3.39 6.91 6.24 1.38 2.55 2.13 5.63 2.07 8.5-0.06 2.48-0.24 5.37-0.41 6.44-0.17 1.07-2.33 3.86-4.81 6.2-3.5 3.32-5.5 4.4-9 4.85-2.48 0.31-6.08 0.1-8-0.48-1.92-0.58-4.51-1.72-5.75-2.53-1.24-0.81-3.22-3.39-4.39-5.73-1.21-2.39-2.2-6.33-2.25-8.99-0.06-2.61 0.23-4.75 0.64-4.75 0.41-0.01 0.52-0.69 0.25-1.51-0.29-0.87 0.24-1.72 1.25-2.01 0.96-0.28 1.4-0.84 0.96-1.25-0.43-0.41 1.6-2.21 4.5-4 3.71-2.29 6.49-3.26 9.29-3.24zm-214.5 1.12c9.08-0.06 19.42 0.39 23 1 3.58 0.61 7.4 1.24 8.5 1.41 1.1 0.16 3.46 0.56 5.25 0.88 1.79 0.33 4.71 1.4 6.5 2.38 2.3 1.27 4.28 3.86 6.75 8.82 1.92 3.87 4.74 10.82 6.25 15.46 1.51 4.64 3.42 12.93 4.24 18.43 0.82 5.5 1.5 15.63 1.5 22.5 0 6.88-0.45 15.31-1 18.75-0.54 3.44-1.44 6.25-1.99 6.25-0.55 0-2.13-1.46-3.52-3.25-1.38-1.79-2.89-3.7-3.35-4.25-0.46-0.55-2.14-2.18-3.73-3.61-1.6-1.44-3.61-3.47-4.48-4.5-0.87-1.04-5.37-5.33-10-9.54-4.63-4.21-13.15-11.55-18.92-16.31-5.77-4.76-16.12-12.38-23-16.93-6.87-4.55-14.98-9.74-18-11.54-3.02-1.8-9.55-4.98-14.5-7.09-4.95-2.1-10.23-4.19-11.74-4.65-2.38-0.72-2.56-1.03-1.35-2.33 0.76-0.82 3.92-2.62 7.02-4 3.09-1.37 5.61-2.84 5.6-3.25-0.02-0.41 1.55-0.75 3.47-0.75 1.92 0 3.73-0.45 4-1 0.27-0.55 0.84-0.83 1.25-0.63 0.41 0.2 4.13-0.2 8.25-0.89 4.13-0.7 14.92-1.31 24-1.36zm58.89 12.38l3.3 0.79c1.82 0.43 5.71 2 8.64 3.5 2.93 1.49 8.78 5.3 13 8.46 4.22 3.16 10.53 8.56 14.02 12 3.49 3.44 8.77 9.74 11.75 14 3.26 4.68 5.11 8.25 4.66 9q-0.73 1.24 0.5 0.5c0.85-0.52 2.45 1.67 5.13 7 2.14 4.26 5.05 11.57 6.46 16.25 1.42 4.68 2.88 10.52 3.25 13 0.37 2.48 0.99 4.95 1.37 5.5 0.39 0.55 0.66 5.46 0.62 10.92-0.07 7.85-0.4 10.02-1.59 10.44-0.83 0.29-2.29 1.34-3.25 2.34-0.96 0.99-1.75 1.57-1.75 1.3 0-0.27-0.9 0.4-2 1.5-1.1 1.1-2.67 2-3.5 2-0.82 0-4.2 1.8-7.5 4-3.3 2.2-6.34 4.01-6.75 4.02-0.41 0.01-3.23 1.25-6.25 2.75-3.02 1.5-5.61 3.07-5.75 3.48-0.14 0.41-0.7 0.52-1.25 0.25-0.55-0.27-1-0.05-1 0.5 0 0.55-0.34 0.81-0.75 0.58-0.41-0.23-3 0.71-5.75 2.08-2.75 1.37-9.5 4-15 5.84-5.5 1.84-10.35 3.04-10.78 2.67-0.44-0.37 0.13-3.03 1.25-5.92 1.11-2.89 2.28-6.49 2.58-8 0.31-1.51 0.72-3.42 0.93-4.25 0.2-0.82 0.4-1.61 0.44-1.75 0.05-0.14 0.23-0.59 0.41-1 0.19-0.41 0.86-1.99 1.5-3.5 0.65-1.51 1.17-3.87 1.17-5.25 0-1.37 0.48-3.74 1.06-5.25 0.59-1.51 1.23-4.32 1.43-6.25 0.2-1.93 0.91-8.68 1.57-15 0.75-7.06 0.99-17.48 0.63-27-0.32-8.52-1.31-19.77-2.2-25-0.89-5.23-2.76-13.77-4.15-19-1.39-5.23-3.41-11.3-4.49-13.5zm-125.64 9.51c2.06-0.01 7.69 1.06 12.5 2.36 4.81 1.31 12.8 4.27 17.75 6.59 4.95 2.31 11.03 5.18 13.5 6.37 2.48 1.19 4.73 2.42 5 2.74 0.28 0.31 3.19 2.33 6.47 4.5 3.29 2.16 8.6 6.41 11.8 9.43 3.21 3.02 5.66 5.95 5.45 6.5-0.22 0.55-1.93 1.32-3.81 1.71-1.87 0.39-5.21 0.98-7.41 1.32-2.2 0.34-10.52 2.19-18.5 4.11-7.97 1.92-14.95 3.77-15.5 4.13-0.55 0.36-1.67 0.7-2.5 0.77-0.82 0.06-3.07 0.62-5 1.23-1.92 0.61-7.77 2.56-13 4.34-5.22 1.77-11.07 3.9-13 4.74-1.92 0.84-3.72 1.58-4 1.65-0.27 0.06-1.96 0.43-3.75 0.81-1.79 0.38-3.24 1.25-3.22 1.94 0.01 0.69-0.32 0.93-0.75 0.54-0.43-0.39-3.03 0.21-5.78 1.34-2.75 1.12-5.22 2.45-5.5 2.94-0.27 0.5-1.62 1.13-3 1.4-1.37 0.28-3.75 1.07-5.29 1.77-1.53 0.69-2.77 1.6-2.75 2.01 0.02 0.41-0.52 0.46-1.21 0.1-0.69-0.36-1.82 0.2-2.52 1.25-0.69 1.04-1.25 1.56-1.25 1.15 0.01-0.41-1.89 0.24-4.23 1.45-2.34 1.2-4.56 2.67-4.94 3.25-0.38 0.58-0.98 0.82-1.33 0.55-0.35-0.27-0.11-2.98 0.53-6 0.64-3.02 2.3-9.1 3.69-13.5 1.4-4.4 4.82-12.73 7.61-18.5 2.8-5.77 5.34-10.73 5.65-11 0.31-0.27 1.72-2.3 3.14-4.5 1.42-2.2 6.36-8.01 10.99-12.92 4.63-4.91 11.11-10.64 14.41-12.74 4.2-2.67 7.13-3.82 9.75-3.83zm25.43 59.6c0.18 0.21-0.55 1.85-1.63 3.64-1.07 1.79-1.74 3.59-1.5 4 0.25 0.41 0 0.75-0.55 0.75-0.55 0-0.77 0.45-0.5 1 0.28 0.55 0.16 0.98-0.25 0.97-0.41-0.02-2.16 3.24-3.9 7.25-1.73 4-4.3 11.1-5.71 15.78-1.41 4.68-3.29 12.1-4.19 16.5-0.89 4.4-1.84 9.35-2.12 11-0.27 1.65-0.68 5.59-0.91 8.75-0.23 3.16-0.76 5.75-1.17 5.75-0.41 0-0.63 4.84-0.49 10.75 0.14 5.91 0.73 15.02 1.32 20.25 0.6 5.23 1.96 13.55 3.03 18.5 1.08 4.95 2.65 11.25 3.5 14 0.85 2.75 1.28 5.11 0.97 5.25-0.32 0.14-3.17-1-6.33-2.53-3.16-1.52-7.21-3.77-9-5-1.79-1.22-3.7-2.22-4.25-2.22-0.55 0-1-0.45-1-1 0-0.55-1.2-1.56-2.67-2.25-1.47-0.69-5.01-3.73-7.86-6.75-2.85-3.02-7.06-7.52-9.36-10-2.3-2.48-4.39-5.29-4.65-6.25-0.25-0.96-0.91-1.75-1.46-1.75-0.55 0-1-0.45-1-1 0-0.55-0.86-2.24-1.92-3.75-1.06-1.51-3.91-7.25-6.34-12.75-2.43-5.5-4.78-10.9-5.23-12-0.46-1.1-0.75-2.34-0.67-2.75 0.09-0.41-0.38-1.99-1.03-3.5-0.66-1.51-1.25-3.2-1.32-3.75-0.06-0.55-0.67-5.05-1.35-10-0.68-4.95-1.72-10.57-2.3-12.5-0.58-1.93-0.78-4.85-0.45-6.5 0.33-1.65 1.5-3.56 2.61-4.25 1.1-0.69 2.56-0.91 3.24-0.5q1.24 0.74 0.5-0.5c-0.47-0.79 0.19-1.71 1.79-2.5 1.39-0.69 2.52-1.59 2.5-2-0.02-0.41 0.42-0.52 0.97-0.25 0.55 0.27 0.99-0.06 0.97-0.75-0.01-0.69 0.21-0.91 0.5-0.5 0.29 0.41 3.79-0.62 7.78-2.3 3.99-1.67 8.15-3.61 9.25-4.3 1.1-0.7 3.91-1.8 6.25-2.46 2.34-0.65 4.25-1.64 4.25-2.19 0-0.55 0.45-0.77 1-0.5 0.55 0.27 2.69-0.23 4.75-1.12 2.06-0.89 6.56-2.92 10-4.5 3.44-1.58 7.38-3.11 8.75-3.38 1.38-0.27 2.48-1.06 2.46-1.75-0.03-0.89 0.42-0.82 1.59 0.25 1.48 1.35 1.56 1.31 0.89-0.5-0.42-1.1-0.46-1.77-0.1-1.5 0.36 0.27 3.21-0.24 6.34-1.14 3.12-0.91 5.83-1.47 6-1.25zm172.87 51.39c0.25 0 0.22 1.91-0.06 4.25-0.28 2.34-0.65 4.92-0.82 5.75-0.16 0.83-0.64 2.85-1.06 4.5-0.42 1.65-1.7 5.7-2.85 9-1.15 3.3-3.65 9.15-5.55 13-1.9 3.85-5.99 10.83-9.08 15.5-3.1 4.67-9.45 12.33-14.13 17.02-4.67 4.68-11.65 10.52-15.5 12.97-3.85 2.46-7.22 4.85-7.5 5.31-0.27 0.47-2.52 1.01-5 1.2-2.47 0.2-7.2-0.33-10.5-1.17-3.3-0.84-6.79-1.6-7.75-1.68-0.96-0.08-1.75-0.49-1.75-0.9 0-0.41-0.56-0.55-1.25-0.3-0.69 0.25-1.62 0.13-2.08-0.25-0.46-0.39-1.13-0.74-1.5-0.79-0.37-0.04-1.57-0.43-2.67-0.85-1.1-0.43-3.57-1.5-5.5-2.38-1.92-0.88-3.84-1.51-4.25-1.39-0.41 0.12-0.75-0.24-0.75-0.79 0-0.55-0.45-0.77-1-0.5-0.55 0.27-0.99 0.16-0.99-0.25 0.01-0.41-1.34-1.54-3-2.5-1.65-0.96-3.01-1.52-3.01-1.25 0 0.27-0.67-0.17-1.5-1-0.82-0.83-2.17-1.5-3-1.5-0.82 0-1.5-0.45-1.5-1 0-0.55-0.56-1-1.25-1-0.69 0.01-4.85-2.93-9.25-6.52-4.4-3.59-9.97-8.2-12.39-10.25-2.42-2.05-5.18-5.31-7.9-10.73l11.65-0.05c6.4-0.02 15.47-0.32 20.14-0.66 4.68-0.34 9.85-0.87 11.5-1.17 1.65-0.31 4.35-0.76 6-1.02 1.65-0.25 4.8-0.76 7-1.13 2.2-0.37 7.15-1.52 11-2.54 3.85-1.03 10.6-2.95 15-4.27 4.4-1.32 11.15-3.65 15-5.19 3.85-1.53 11.16-4.74 16.25-7.13 5.25-2.46 9.79-4.02 10.5-3.6 0.74 0.44 0.96 0.34 0.54-0.25-0.39-0.54 0.29-1.49 1.5-2.1 1.22-0.61 5.47-3.2 9.46-5.75 3.99-2.55 7.5-5.09 7.8-5.64 0.3-0.55 0.75-1 1-1zm-182.55 15c0.55 0 1 0.67 1 1.5 0 0.83 0.9 1.95 2 2.5 1.1 0.55 1.9 1.34 1.77 1.75-0.12 0.41 2.02 3.17 4.75 6.12 2.74 2.96 9.26 9.72 14.48 15.03 5.23 5.31 12.43 12.19 16 15.3 3.58 3.1 10.55 8.65 15.5 12.33 4.95 3.68 12.15 8.52 16 10.75 3.85 2.24 8.58 4.71 10.5 5.5 1.93 0.79 7.66 3.42 12.75 5.83 5.09 2.41 9.09 4.73 8.9 5.14-0.2 0.41-3.91 2.25-8.25 4.09-4.35 1.84-8.69 3.07-9.65 2.75-0.96-0.32-1.74-0.25-1.72 0.16 0.01 0.41-1.45 1.15-3.25 1.63-1.81 0.49-3.84 0.83-4.53 0.75-0.69-0.07-1.81 0.26-2.5 0.74-0.69 0.48-9.57 0.77-19.75 0.65-15.44-0.18-19.98-0.59-27.5-2.49-4.95-1.25-10.57-3.11-12.5-4.13-1.92-1.02-4.2-2.43-5.06-3.13-0.85-0.7-2.71-4.42-4.13-8.27-1.42-3.85-3.32-10.6-4.22-15-0.9-4.4-2.24-14.98-2.97-23.5-0.8-9.23-1-16.71-0.49-18.5 0.46-1.65 0.82-4.8 0.78-7-0.03-2.2 0.16-5.12 0.43-6.5 0.27-1.37 0.53-2.84 0.58-3.25 0.04-0.41 0.53-0.75 1.08-0.75z"/>
</svg>